<?xml version="1.0" standalone="no"?>
<!DOCTYPE svg PUBLIC "-//W3C//DTD SVG 20010904//EN"
 "http://www.w3.org/TR/2001/REC-SVG-20010904/DTD/svg10.dtd">
<svg version="1.0" xmlns="http://www.w3.org/2000/svg"
 width="500.000000pt" height="500.000000pt" viewBox="0 0 500.000000 500.000000"
 preserveAspectRatio="xMidYMid meet">

<g transform="translate(0.000000,500.000000) scale(0.100000,-0.100000)"
fill="#000000" stroke="none">
<path d="M903 4698 c8 -18 42 -104 78 -192 45 -111 70 -161 84 -167 11 -4 278
-52 593 -105 l573 -97 27 22 c96 76 144 108 216 141 139 63 193 75 351 74 122
-1 151 -4 228 -28 157 -47 267 -115 379 -234 165 -175 247 -420 218 -654 -30
-253 -155 -455 -366 -597 -191 -128 -428 -170 -659 -116 -79 19 -211 77 -279
125 -41 28 -68 35 -244 66 -108 19 -198 34 -199 34 -2 0 -3 -304 -3 -675 l0
-675 275 0 275 0 0 435 0 435 188 0 c334 0 493 27 677 114 266 127 445 346
532 653 25 90 28 112 28 273 0 218 -23 326 -107 495 -141 284 -391 465 -743
537 -29 6 -313 13 -670 17 l-620 7 -409 72 c-225 40 -415 72 -423 72 -11 0
-11 -5 0 -32z"/>
<path d="M2860 4208 c-150 -43 -177 -246 -44 -324 86 -51 206 -18 250 69 21
40 22 123 1 164 -22 41 -69 80 -115 93 -43 12 -46 11 -92 -2z"/>
<path d="M1130 4154 c0 -6 150 -377 155 -382 2 -2 844 -147 1020 -176 100 -16
140 -9 194 31 98 75 74 254 -41 297 -23 9 -330 65 -680 126 -690 119 -648 112
-648 104z"/>
<path d="M3213 3755 c-110 -66 -109 -236 3 -301 105 -62 233 -10 264 107 41
153 -129 277 -267 194z"/>
<path d="M2744 3626 c-26 -26 -34 -42 -34 -71 0 -70 43 -116 111 -117 78 -1
132 70 110 143 -16 52 -53 79 -108 79 -38 0 -50 -5 -79 -34z"/>
<path d="M1377 3548 c84 -212 144 -343 160 -350 10 -4 218 -41 463 -83 297
-51 461 -75 493 -72 86 8 157 87 157 175 0 77 -51 148 -123 171 -18 6 -205 40
-417 76 -212 36 -463 79 -557 95 -95 17 -177 30 -183 30 -5 0 -2 -19 7 -42z"/>
<path d="M2962 3279 c-85 -42 -119 -157 -73 -247 49 -97 185 -122 268 -49 159
140 -5 390 -195 296z"/>
<path d="M1505 1186 c-16 -8 -43 -28 -60 -45 -27 -29 -30 -39 -30 -97 0 -62 2
-67 36 -98 19 -18 58 -41 85 -50 81 -28 119 -50 122 -70 6 -27 -24 -46 -71
-46 -30 0 -46 7 -69 31 -31 30 -31 30 -63 13 -68 -37 -70 -39 -47 -76 35 -56
86 -78 184 -78 106 0 144 18 176 83 49 97 -1 184 -132 227 -38 12 -78 32 -89
43 l-20 20 23 19 c28 23 63 17 98 -15 l22 -21 43 24 c62 34 63 36 32 76 -50
65 -164 94 -240 60z"/>
<path d="M3694 1184 c-55 -20 -118 -75 -151 -132 -37 -62 -39 -174 -5 -239 48
-92 127 -144 229 -151 115 -8 203 40 258 139 26 47 30 64 30 129 0 53 -6 85
-18 108 -28 51 -87 111 -131 134 -53 27 -156 33 -212 12z m144 -119 c47 -19
92 -84 92 -133 0 -83 -89 -162 -165 -148 -63 12 -125 85 -125 148 0 45 39 106
83 127 50 25 65 26 115 6z"/>
<path d="M740 930 l0 -260 60 0 59 0 3 83 3 82 72 6 c80 6 130 35 159 92 34
65 17 164 -38 213 -42 39 -64 44 -192 44 l-126 0 0 -260z m243 119 c22 -27 22
-41 -2 -70 -14 -18 -29 -23 -67 -23 l-49 -1 -3 54 c-2 36 1 57 10 63 21 14 91
-1 111 -23z"/>
<path d="M1800 1135 l0 -55 59 0 c33 0 62 -4 66 -9 3 -5 6 -98 6 -205 l1 -196
64 0 64 0 2 203 3 202 61 3 62 3 4 37 c7 76 19 72 -198 72 l-194 0 0 -55z"/>
<path d="M2250 1008 c0 -101 5 -199 10 -218 5 -20 24 -50 42 -67 103 -100 289
-79 348 37 18 35 20 60 20 235 l0 196 -62 -3 -63 -3 -3 -188 -2 -188 -37 -15
c-39 -17 -77 -12 -105 13 -16 14 -18 38 -18 200 l0 183 -65 0 -65 0 0 -182z"/>
<path d="M2750 929 l0 -261 158 4 c181 4 210 13 279 92 114 130 65 332 -97
405 -39 18 -66 21 -192 21 l-148 0 0 -261z m300 126 c94 -49 93 -202 -2 -251
-21 -11 -57 -18 -98 -18 l-65 -1 -3 134 c-1 74 0 141 3 149 7 19 121 10 165
-13z"/>
<path d="M3329 1178 c-2 -7 -3 -124 -1 -260 l3 -248 59 0 60 0 0 83 c0 45 3
162 7 260 l6 177 -65 0 c-44 0 -67 -4 -69 -12z"/>
<path d="M1164 891 c-2 -2 -4 -24 -4 -48 l0 -43 90 0 90 0 0 44 0 45 -86 3
c-47 2 -88 1 -90 -1z"/>
</g>
</svg>
